<svg width="32" height="32" viewBox="0 0 32 32" fill="none" xmlns="http://www.w3.org/2000/svg">
<path d="M14 27.3333C6.63602 27.3333 0.666687 21.364 0.666687 14C0.666687 6.63599 6.63602 0.666656 14 0.666656C21.364 0.666656 27.3334 6.63599 27.3334 14C27.3334 21.364 21.364 27.3333 14 27.3333ZM14 24.6667C16.829 24.6667 19.5421 23.5429 21.5425 21.5425C23.5429 19.5421 24.6667 16.829 24.6667 14C24.6667 11.171 23.5429 8.45791 21.5425 6.45752C19.5421 4.45713 16.829 3.33332 14 3.33332C11.171 3.33332 8.45794 4.45713 6.45755 6.45752C4.45716 8.45791 3.33335 11.171 3.33335 14C3.33335 16.829 4.45716 19.5421 6.45755 21.5425C8.45794 23.5429 11.171 24.6667 14 24.6667ZM14 12.1147L17.7707 8.34266L19.6574 10.2293L15.8854 14L19.6574 17.7707L17.7707 19.6573L14 15.8853L10.2294 19.6573L8.34269 17.7707L12.1147 14L8.34269 10.2293L10.2294 8.34266L14 12.1147Z" fill="#2F46CF"/>
</svg>
