<svg width="32" height="32" viewBox="0 0 32 32" fill="none" xmlns="http://www.w3.org/2000/svg">
<path d="M16.6666 0.666658C19.1066 0.665493 21.4732 1.50088 23.3718 3.03349C25.2703 4.5661 26.5861 6.70329 27.0995 9.08861C27.613 11.4739 27.2932 13.9632 26.1934 16.1412C25.0936 18.3193 23.2803 20.0544 21.056 21.0573C20.345 22.6292 19.2633 24.0052 17.9038 25.0672C16.5442 26.1293 14.9474 26.8457 13.2502 27.1551C11.5529 27.4645 9.80597 27.3576 8.15913 26.8436C6.51228 26.3295 5.01469 25.4237 3.79479 24.2038C2.57489 22.9839 1.66908 21.4863 1.15506 19.8395C0.641035 18.1927 0.534132 16.4457 0.843518 14.7485C1.1529 13.0512 1.86935 11.4544 2.9314 10.0948C3.99345 8.7353 5.36943 7.65365 6.94131 6.94266C7.78683 5.07184 9.15409 3.48466 10.8791 2.37147C12.6041 1.25828 14.6136 0.66634 16.6666 0.666658ZM11.3333 8.66666C10.2827 8.66666 9.24244 8.87358 8.27184 9.27562C7.30123 9.67766 6.41932 10.2669 5.67645 11.0098C4.93358 11.7527 4.34431 12.6346 3.94227 13.6052C3.54023 14.5758 3.33331 15.6161 3.33331 16.6667C3.33331 17.7172 3.54023 18.7575 3.94227 19.7281C4.34431 20.6987 4.93358 21.5806 5.67645 22.3235C6.41932 23.0664 7.30123 23.6557 8.27184 24.0577C9.24244 24.4597 10.2827 24.6667 11.3333 24.6667C13.455 24.6667 15.4899 23.8238 16.9902 22.3235C18.4905 20.8232 19.3333 18.7884 19.3333 16.6667C19.3333 14.5449 18.4905 12.5101 16.9902 11.0098C15.4899 9.50951 13.455 8.66666 11.3333 8.66666ZM12.6666 9.99999V11.3333H15.3333V14H9.99997C9.83338 13.9997 9.67271 14.0618 9.5496 14.174C9.42649 14.2862 9.34986 14.4405 9.33481 14.6064C9.31975 14.7723 9.36737 14.9379 9.46827 15.0704C9.56917 15.203 9.71604 15.293 9.87997 15.3227L9.99997 15.3333H12.6666C13.5507 15.3333 14.3985 15.6845 15.0237 16.3096C15.6488 16.9348 16 17.7826 16 18.6667C16 19.5507 15.6488 20.3986 15.0237 21.0237C14.3985 21.6488 13.5507 22 12.6666 22V23.3333H9.99997V22H7.33331V19.3333H12.6666C12.8332 19.3336 12.9939 19.2716 13.117 19.1593C13.2401 19.0471 13.3168 18.8928 13.3318 18.7269C13.3469 18.561 13.2992 18.3954 13.1983 18.2629C13.0974 18.1303 12.9506 18.0403 12.7866 18.0107L12.6666 18H9.99997C9.11592 18 8.26807 17.6488 7.64295 17.0237C7.01783 16.3986 6.66664 15.5507 6.66664 14.6667C6.66664 13.7826 7.01783 12.9348 7.64295 12.3096C8.26807 11.6845 9.11592 11.3333 9.99997 11.3333V9.99999H12.6666ZM16.6666 3.33332C15.5369 3.332 14.4197 3.57058 13.3891 4.03327C12.3584 4.49596 11.4377 5.17223 10.688 6.01732C12.195 5.92584 13.7043 6.15532 15.116 6.69059C16.5277 7.22585 17.8097 8.05472 18.8772 9.12236C19.9448 10.19 20.7735 11.4721 21.3086 12.8839C21.8437 14.2957 22.073 15.805 21.9813 17.312C23.1936 16.2342 24.0496 14.8133 24.4357 13.2377C24.8219 11.6622 24.72 10.0065 24.1435 8.49029C23.567 6.97403 22.5432 5.66884 21.2079 4.74783C19.8726 3.82682 18.2888 3.33351 16.6666 3.33332Z" fill="#2F46CF"/>
</svg>
