<svg width="32" height="32" viewBox="0 0 32 32" fill="none" xmlns="http://www.w3.org/2000/svg">
<path d="M11 9.33334L13.8214 16.1173L21.144 16.704L15.5653 21.4827L17.2694 28.6293L11 24.8L4.73068 28.6293L6.43468 21.4827L0.856018 16.704L8.17868 16.1173L11 9.33334ZM11 16.276L10.0147 18.6453L7.46002 18.8493L9.40668 20.5173L8.81068 23.012L11 21.6747L13.188 23.012L12.5934 20.5187L14.5387 18.8493L11.9854 18.6453L11 16.276ZM5.66668 0.666672V12.6667H3.00002V0.666672H5.66668ZM19 0.666672V12.6667H16.3334V0.666672H19ZM12.3334 0.666672V7.33334H9.66668V0.666672H12.3334Z" fill="#2F46CF"/>
</svg>
