<svg width="32" height="32" viewBox="0 0 32 32" fill="none" xmlns="http://www.w3.org/2000/svg">
<path d="M5.66665 9.99999C6.02027 9.99999 6.35941 10.1405 6.60945 10.3905C6.8595 10.6406 6.99998 10.9797 6.99998 11.3333C9.09483 11.3302 11.1293 12.035 12.7733 13.3333H15.6666C17.444 13.3333 19.04 14.1067 20.1386 15.3333H24.3333C25.5937 15.333 26.8283 15.6899 27.894 16.3627C28.9598 17.0355 29.8129 17.9967 30.3546 19.1347C27.2013 23.296 22.096 26 16.3333 26C12.6133 26 9.46665 25.196 6.91998 23.7893C6.8267 24.0467 6.6563 24.2691 6.432 24.4261C6.2077 24.5831 5.94044 24.6671 5.66665 24.6667H1.66665C1.31302 24.6667 0.973886 24.5262 0.723837 24.2761C0.473789 24.0261 0.333313 23.6869 0.333313 23.3333V11.3333C0.333313 10.9797 0.473789 10.6406 0.723837 10.3905C0.973886 10.1405 1.31302 9.99999 1.66665 9.99999H5.66665ZM7.00131 14L6.99998 20.696L7.05998 20.7387C9.45331 22.4187 12.5706 23.3333 16.3333 23.3333C20.3386 23.3333 24.0653 21.792 26.78 19.16L26.9573 18.9827L26.7973 18.8493C26.1677 18.3562 25.4045 18.0636 24.6066 18.0093L24.3333 18H21.5186C21.6146 18.4293 21.6666 18.8747 21.6666 19.3333V20.6667H9.66665V18L18.72 17.9987L18.6746 17.8947C18.4191 17.3607 18.0261 16.9044 17.5359 16.5726C17.0457 16.2408 16.476 16.0455 15.8853 16.0067L15.6666 16H11.76C11.1404 15.3663 10.4003 14.8629 9.58334 14.5194C8.76634 14.176 7.88891 13.9994 7.00265 14H7.00131ZM4.33331 12.6667H2.99998V22H4.33331V12.6667ZM23 4.66666C24.0608 4.66666 25.0783 5.08808 25.8284 5.83823C26.5786 6.58838 27 7.60579 27 8.66666C27 9.72752 26.5786 10.7449 25.8284 11.4951C25.0783 12.2452 24.0608 12.6667 23 12.6667C21.9391 12.6667 20.9217 12.2452 20.1716 11.4951C19.4214 10.7449 19 9.72752 19 8.66666C19 7.60579 19.4214 6.58838 20.1716 5.83823C20.9217 5.08808 21.9391 4.66666 23 4.66666ZM23 7.33332C22.6464 7.33332 22.3072 7.4738 22.0572 7.72385C21.8071 7.9739 21.6666 8.31303 21.6666 8.66666C21.6666 9.02028 21.8071 9.35942 22.0572 9.60947C22.3072 9.85951 22.6464 9.99999 23 9.99999C23.3536 9.99999 23.6927 9.85951 23.9428 9.60947C24.1928 9.35942 24.3333 9.02028 24.3333 8.66666C24.3333 8.31303 24.1928 7.9739 23.9428 7.72385C23.6927 7.4738 23.3536 7.33332 23 7.33332ZM13.6666 0.666656C14.7275 0.666656 15.7449 1.08808 16.4951 1.83823C17.2452 2.58838 17.6666 3.60579 17.6666 4.66666C17.6666 5.72752 17.2452 6.74494 16.4951 7.49508C15.7449 8.24523 14.7275 8.66666 13.6666 8.66666C12.6058 8.66666 11.5884 8.24523 10.8382 7.49508C10.0881 6.74494 9.66665 5.72752 9.66665 4.66666C9.66665 3.60579 10.0881 2.58838 10.8382 1.83823C11.5884 1.08808 12.6058 0.666656 13.6666 0.666656ZM13.6666 3.33332C13.313 3.33332 12.9739 3.4738 12.7238 3.72385C12.4738 3.9739 12.3333 4.31303 12.3333 4.66666C12.3333 5.02028 12.4738 5.35942 12.7238 5.60947C12.9739 5.85951 13.313 5.99999 13.6666 5.99999C14.0203 5.99999 14.3594 5.85951 14.6095 5.60947C14.8595 5.35942 15 5.02028 15 4.66666C15 4.31303 14.8595 3.9739 14.6095 3.72385C14.3594 3.4738 14.0203 3.33332 13.6666 3.33332Z" fill="#2F46CF"/>
</svg>
