<svg width="32" height="32" viewBox="0 0 32 32" fill="none" xmlns="http://www.w3.org/2000/svg">
<path d="M14.0014 2.03867C17.1334 -0.77333 21.9734 -0.679996 24.9907 2.34267C28.0067 5.36667 28.1107 10.1827 25.3054 13.324L13.9987 24.6467L2.6947 13.324C-0.110638 10.1827 -0.00530469 5.35867 3.00936 2.34267C6.02936 -0.675996 10.86 -0.77733 14.0014 2.03867ZM23.1027 4.22667C21.1027 2.224 17.876 2.14267 15.7827 4.02267L14.0027 5.62L12.2214 4.024C10.1214 2.14134 6.90136 2.224 4.89603 4.22934C2.90936 6.216 2.80936 9.396 4.64003 11.4973L14 20.872L23.36 11.4987C25.192 9.396 25.092 6.22 23.1027 4.22667Z" fill="#2F46CF"/>
</svg>
