<svg width="32" height="32" viewBox="0 0 32 32" fill="none" xmlns="http://www.w3.org/2000/svg">
<path d="M5.33333 9.66668V7.00001C5.33333 5.2319 6.03571 3.53621 7.28595 2.28596C8.5362 1.03572 10.2319 0.333344 12 0.333344C13.7681 0.333344 15.4638 1.03572 16.714 2.28596C17.9643 3.53621 18.6667 5.2319 18.6667 7.00001V9.66668H22.6667C23.0203 9.66668 23.3594 9.80715 23.6095 10.0572C23.8595 10.3073 24 10.6464 24 11V27C24 27.3536 23.8595 27.6928 23.6095 27.9428C23.3594 28.1929 23.0203 28.3333 22.6667 28.3333H1.33333C0.979711 28.3333 0.640573 28.1929 0.390524 27.9428C0.140476 27.6928 0 27.3536 0 27V11C0 10.6464 0.140476 10.3073 0.390524 10.0572C0.640573 9.80715 0.979711 9.66668 1.33333 9.66668H5.33333ZM5.33333 12.3333H2.66667V25.6667H21.3333V12.3333H18.6667V15H16V12.3333H8V15H5.33333V12.3333ZM8 9.66668H16V7.00001C16 5.93914 15.5786 4.92173 14.8284 4.17158C14.0783 3.42144 13.0609 3.00001 12 3.00001C10.9391 3.00001 9.92172 3.42144 9.17157 4.17158C8.42143 4.92173 8 5.93914 8 7.00001V9.66668Z" fill="#2F46CF"/>
</svg>
