<svg width="32" height="32" viewBox="0 0 32 32" fill="none" xmlns="http://www.w3.org/2000/svg">
<path d="M16 0.666656L21.6347 8.91066L31.2173 11.7227L25.1173 19.6293L25.404 29.6107L16 26.2533L6.59599 29.6107L6.88265 19.6293L0.782654 11.7227L10.3653 8.91066L16 0.666656ZM16 5.39199L12.0293 11.2027L5.27599 13.1827L9.57599 18.7533L9.37199 25.7867L16 23.4213L22.6267 25.7867L22.424 18.7533L26.7227 13.1827L19.9707 11.2027L16 5.39199ZM13.3333 16C13.3333 16.7072 13.6143 17.3855 14.1144 17.8856C14.6145 18.3857 15.2927 18.6667 16 18.6667C16.7072 18.6667 17.3855 18.3857 17.8856 17.8856C18.3857 17.3855 18.6667 16.7072 18.6667 16H21.3333C21.3333 17.4145 20.7714 18.771 19.7712 19.7712C18.771 20.7714 17.4145 21.3333 16 21.3333C14.5855 21.3333 13.2289 20.7714 12.2288 19.7712C11.2286 18.771 10.6667 17.4145 10.6667 16H13.3333Z" fill="#2F46CF"/>
</svg>
