<svg width="1366" height="617" viewBox="0 0 1366 617" fill="none" xmlns="http://www.w3.org/2000/svg">
<path d="M1300.54 582.356L1214.28 532.226L1214.56 632L1300.82 682.13L1300.54 582.356Z" fill="#3DA1EA"/>
<path d="M1387.37 532.227L1301.11 482.097L1214.28 532.226L1300.54 582.356L1387.37 532.227Z" fill="#6DB9F2"/>
<path d="M1300.54 582.355L1300.82 682.129L1387.65 632L1387.37 532.226L1300.54 582.355Z" fill="#2F88D6"/>
<path opacity="0.87" d="M1140.35 371.924H1254.31V498.761H1140.35V371.924Z" fill="url(#paint0_linear_1861_1328)"/>
<path d="M1197.25 344.702L1140.5 311.718L1140.68 377.367L1197.44 410.351L1197.25 344.702Z" fill="#51CE6E"/>
<path d="M1254.38 311.72L1197.62 278.736L1140.49 311.719L1197.25 344.703L1254.38 311.72Z" fill="#9EF2B1"/>
<path d="M1197.25 344.703L1197.44 410.352L1254.57 377.369L1254.38 311.721L1197.25 344.703Z" fill="#34A853"/>
<path opacity="0.87" d="M900 305.629H1073.19V498.398H900V305.629Z" fill="url(#paint1_linear_1861_1328)"/>
<path opacity="0.87" d="M972.231 101.642H1074.09V215.016H972.231V101.642Z" fill="url(#paint2_linear_1861_1328)"/>
<path d="M1023.09 77.3097L972.356 47.8267L972.522 106.508L1023.26 135.991L1023.09 77.3097Z" fill="#395AE2"/>
<path d="M1074.16 47.8268L1023.42 18.3438L972.356 47.8257L1023.09 77.3087L1074.16 47.8268Z" fill="#5178F2"/>
<path d="M1023.09 77.3096L1023.26 135.991L1074.32 106.508L1074.15 47.8276L1023.09 77.3096Z" fill="#2F46CF"/>
<path opacity="0.87" d="M1250.07 0.76416H1351.92V114.138H1250.07V0.76416Z" fill="url(#paint3_linear_1861_1328)"/>
<path d="M1300.93 -23.5683L1250.19 -53.0513L1250.36 5.62875L1301.09 35.1118L1300.93 -23.5683Z" fill="#51CE6E"/>
<path d="M1300.93 -23.5692L1301.09 35.1118L1352.16 5.62875L1351.99 -53.0522L1300.93 -23.5692Z" fill="#34A853"/>
<path d="M986.474 264.259L900.212 214.129L900.495 313.903L986.757 364.033L986.474 264.259Z" fill="#FFD05C"/>
<path d="M1073.3 214.13L987.037 164L900.212 214.129L986.474 264.259L1073.3 214.13Z" fill="#FFDE8A"/>
<path d="M986.474 264.259L986.757 364.033L1073.58 313.904L1073.3 214.13L986.474 264.259Z" fill="#FBBC05"/>
<path d="M1110.3 617.929L1059.56 588.446L1059.73 647.127L1110.46 676.61L1110.3 617.929Z" fill="#FF578B"/>
<path d="M1161.36 588.448L1110.63 558.964L1059.56 588.446L1110.3 617.93L1161.36 588.448Z" fill="#FF88AD"/>
<path d="M1110.3 617.93L1110.46 676.61L1161.53 647.128L1161.36 588.448L1110.3 617.93Z" fill="#FF2F69"/>
<path opacity="0.87" d="M101.088 420.642H-0.769043V534.016H101.088V420.642Z" fill="url(#paint4_linear_1861_1328)"/>
<path d="M50.0851 396.31L-0.648926 366.827L-0.482925 425.508L50.2511 454.991L50.0851 396.31Z" fill="#395AE2"/>
<path d="M101.155 366.827L50.4211 337.344L-0.644897 366.826L50.0891 396.309L101.155 366.827Z" fill="#5178F2"/>
<path d="M50.0898 396.31L50.2558 454.991L101.321 425.508L101.155 366.828L50.0898 396.31Z" fill="#2F46CF"/>
<path d="M399.34 634.853L348.606 605.37L348.772 664.051L399.506 693.534L399.34 634.853Z" fill="#395AE2"/>
<path d="M450.405 605.37L399.671 575.887L348.606 605.369L399.34 634.852L450.405 605.37Z" fill="#5178F2"/>
<path d="M399.34 634.852L399.506 693.532L450.571 664.049L450.405 605.369L399.34 634.852Z" fill="#2F46CF"/>
<path opacity="0.87" d="M378.925 319.763H277.068V433.137H378.925V319.763Z" fill="url(#paint5_linear_1861_1328)"/>
<path d="M327.926 295.432L277.192 265.949L277.358 324.629L328.092 354.112L327.926 295.432Z" fill="#51CE6E"/>
<path d="M378.991 265.949L328.258 236.467L277.193 265.95L327.927 295.433L378.991 265.949Z" fill="#9EF2B1"/>
<path d="M327.926 295.431L328.092 354.112L379.157 324.629L378.991 265.948L327.926 295.431Z" fill="#34A853"/>
<path d="M13.4739 583.259L-72.7881 533.129L-72.5051 632.903L13.7569 683.033L13.4739 583.259Z" fill="#FFD05C"/>
<path d="M100.299 533.13L14.0369 483L-72.7881 533.128L13.4739 583.258L100.299 533.13Z" fill="#FFDE8A"/>
<path d="M13.4741 583.259L13.7551 683.033L100.58 632.904L100.297 533.131L13.4741 583.259Z" fill="#FBBC05"/>
<path opacity="0.87" d="M190.053 140.796H90.032V252.127H190.053V140.796Z" fill="url(#paint6_linear_1861_1328)"/>
<path d="M139.973 116.903L90.1541 87.9512L90.3171 145.574L140.136 174.525L139.973 116.903Z" fill="#48E0F9"/>
<path d="M190.118 87.952L140.299 59L90.1541 87.951L139.973 116.903L190.118 87.952Z" fill="#7AE9FC"/>
<path d="M139.973 116.903L140.136 174.526L190.281 145.575L190.114 87.9521L139.973 116.903Z" fill="#2AC4EA"/>
<path opacity="0.25" d="M1367 0H0V972H1367V0Z" fill="black"/>
<defs>
<linearGradient id="paint0_linear_1861_1328" x1="1197.33" y1="498.761" x2="1197.33" y2="371.924" gradientUnits="userSpaceOnUse">
<stop stop-color="white" stop-opacity="0"/>
<stop offset="0.116" stop-color="#F6FBF7" stop-opacity="0.043"/>
<stop offset="0.286" stop-color="#DEF1E3" stop-opacity="0.157"/>
<stop offset="0.489" stop-color="#B8E0C2" stop-opacity="0.349"/>
<stop offset="0.717" stop-color="#82C995" stop-opacity="0.616"/>
<stop offset="0.963" stop-color="#3EAC5B" stop-opacity="0.949"/>
<stop offset="0.997" stop-color="#34A853"/>
</linearGradient>
<linearGradient id="paint1_linear_1861_1328" x1="986.593" y1="498.398" x2="986.593" y2="305.629" gradientUnits="userSpaceOnUse">
<stop stop-color="white" stop-opacity="0"/>
<stop offset="0.089" stop-color="#FEFDF7" stop-opacity="0.027"/>
<stop offset="0.218" stop-color="#FEF7E4" stop-opacity="0.106"/>
<stop offset="0.373" stop-color="#FEEFC4" stop-opacity="0.235"/>
<stop offset="0.547" stop-color="#FDE398" stop-opacity="0.412"/>
<stop offset="0.737" stop-color="#FCD45F" stop-opacity="0.639"/>
<stop offset="0.938" stop-color="#FBC11A" stop-opacity="0.914"/>
<stop offset="0.997" stop-color="#FBBC05"/>
</linearGradient>
<linearGradient id="paint2_linear_1861_1328" x1="1023.16" y1="215.016" x2="1023.16" y2="101.642" gradientUnits="userSpaceOnUse">
<stop stop-color="white" stop-opacity="0"/>
<stop offset="0.101" stop-color="#F7F8FD" stop-opacity="0.035"/>
<stop offset="0.248" stop-color="#E4E7F8" stop-opacity="0.129"/>
<stop offset="0.425" stop-color="#C4CAF1" stop-opacity="0.282"/>
<stop offset="0.623" stop-color="#97A2E7" stop-opacity="0.498"/>
<stop offset="0.837" stop-color="#5E70D9" stop-opacity="0.773"/>
<stop offset="0.997" stop-color="#2F46CF"/>
</linearGradient>
<linearGradient id="paint3_linear_1861_1328" x1="1301" y1="114.138" x2="1301" y2="0.76416" gradientUnits="userSpaceOnUse">
<stop stop-color="white" stop-opacity="0"/>
<stop offset="0.116" stop-color="#F6FBF7" stop-opacity="0.043"/>
<stop offset="0.286" stop-color="#DEF1E3" stop-opacity="0.157"/>
<stop offset="0.489" stop-color="#B8E0C2" stop-opacity="0.349"/>
<stop offset="0.717" stop-color="#82C995" stop-opacity="0.616"/>
<stop offset="0.963" stop-color="#3EAC5B" stop-opacity="0.949"/>
<stop offset="0.997" stop-color="#34A853"/>
</linearGradient>
<linearGradient id="paint4_linear_1861_1328" x1="50.1595" y1="534.016" x2="50.1595" y2="420.642" gradientUnits="userSpaceOnUse">
<stop stop-color="white" stop-opacity="0"/>
<stop offset="0.101" stop-color="#F7F8FD" stop-opacity="0.035"/>
<stop offset="0.248" stop-color="#E4E7F8" stop-opacity="0.129"/>
<stop offset="0.425" stop-color="#C4CAF1" stop-opacity="0.282"/>
<stop offset="0.623" stop-color="#97A2E7" stop-opacity="0.498"/>
<stop offset="0.837" stop-color="#5E70D9" stop-opacity="0.773"/>
<stop offset="0.997" stop-color="#2F46CF"/>
</linearGradient>
<linearGradient id="paint5_linear_1861_1328" x1="327.996" y1="433.137" x2="327.996" y2="319.763" gradientUnits="userSpaceOnUse">
<stop stop-color="white" stop-opacity="0"/>
<stop offset="0.116" stop-color="#F6FBF7" stop-opacity="0.043"/>
<stop offset="0.286" stop-color="#DEF1E3" stop-opacity="0.157"/>
<stop offset="0.489" stop-color="#B8E0C2" stop-opacity="0.349"/>
<stop offset="0.717" stop-color="#82C995" stop-opacity="0.616"/>
<stop offset="0.963" stop-color="#3EAC5B" stop-opacity="0.949"/>
<stop offset="0.997" stop-color="#34A853"/>
</linearGradient>
<linearGradient id="paint6_linear_1861_1328" x1="140.042" y1="252.127" x2="140.042" y2="140.796" gradientUnits="userSpaceOnUse">
<stop stop-color="white" stop-opacity="0"/>
<stop offset="0.093" stop-color="#F8FDFE" stop-opacity="0.031"/>
<stop offset="0.229" stop-color="#E6F8FC" stop-opacity="0.114"/>
<stop offset="0.392" stop-color="#C9F0F9" stop-opacity="0.251"/>
<stop offset="0.575" stop-color="#A0E4F5" stop-opacity="0.443"/>
<stop offset="0.775" stop-color="#6CD6F0" stop-opacity="0.686"/>
<stop offset="0.986" stop-color="#2EC5EA" stop-opacity="0.98"/>
<stop offset="1" stop-color="#2AC4EA"/>
</linearGradient>
</defs>
</svg>
